<?xml version="1.0" encoding="utf-8"?>
<!-- Generator: Adobe Illustrator 16.0.0, SVG Export Plug-In . SVG Version: 6.00 Build 0)  -->
<!DOCTYPE svg PUBLIC "-//W3C//DTD SVG 1.1//EN" "http://www.w3.org/Graphics/SVG/1.1/DTD/svg11.dtd">
<svg version="1.1" id="Layer_1" xmlns="http://www.w3.org/2000/svg" xmlns:xlink="http://www.w3.org/1999/xlink" x="0px" y="0px"
	 width="643px" height="232px" viewBox="0 0 643 232" enable-background="new 0 0 643 232" xml:space="preserve">
<g>
	<path fill="#C02026" d="M8.964,144.955c0.384-0.48,1.056-0.528,1.488-0.145c2.496,2.016,6.673,4.369,11.041,4.32
		c2.928,0,5.568-0.863,7.393-2.208c1.872-1.345,2.88-3.12,2.88-4.993c0-1.92-0.912-3.359-2.736-4.607
		c-1.824-1.2-4.512-2.112-7.776-2.736h-0.096c-3.12-0.576-5.856-1.44-7.921-2.832c-2.064-1.345-3.456-3.361-3.456-5.857
		c0-2.544,1.392-4.752,3.504-6.288c2.112-1.536,4.944-2.448,8.112-2.448c4.417,0,7.729,2.16,10.369,3.889
		c0.48,0.336,0.624,0.96,0.288,1.488c-0.288,0.479-0.96,0.623-1.44,0.287c-2.64-1.728-5.521-3.552-9.217-3.552
		c-2.736,0-5.184,0.815-6.864,2.017c-1.68,1.248-2.64,2.88-2.64,4.607c0.048,1.681,0.816,2.929,2.496,4.081
		c1.68,1.151,4.176,1.968,7.201,2.544h0.096c3.36,0.624,6.337,1.584,8.545,3.072c2.208,1.44,3.696,3.648,3.696,6.336
		c0,2.689-1.536,5.089-3.792,6.721c-2.256,1.633-5.28,2.641-8.641,2.641c-5.136-0.048-9.601-2.641-12.385-4.848
		C8.676,146.059,8.627,145.387,8.964,144.955z"/>
	<path fill="#C02026" d="M44.516,118.793c0-0.625,0.528-1.152,1.152-1.152h0.096h17.186c0.672,0,1.152,0.527,1.152,1.152
		c0,0.672-0.48,1.199-1.152,1.199H46.868v13.297h14.065c0.624,0,1.152,0.529,1.152,1.201c0,0.623-0.528,1.151-1.152,1.151H46.868
		v13.249h16.082c0.672,0,1.152,0.528,1.152,1.2c0,0.624-0.48,1.152-1.152,1.152H45.812h-0.144h-0.096
		c-0.576-0.048-1.056-0.528-1.056-1.152V118.793z"/>
	<path fill="#C02026" d="M95.023,150.099c0,0.624-0.528,1.152-1.2,1.152c-0.624,0-1.152-0.528-1.152-1.152l-0.027-6.44
		c0-2.447-1.248-3.984-2.736-5.088c-1.488-1.057-3.264-1.584-3.888-1.68c-0.144-0.049-0.192-0.097-0.24-0.097h-8.161v13.297
		c0,0.624-0.528,1.152-1.2,1.152c-0.624,0-1.152-0.528-1.152-1.152v-31.298c0-0.576,0.48-1.104,1.056-1.152h0.096h0.144h9.36
		c5.281,0,9.553,4.271,9.553,9.601c0,3.841-2.256,7.152-5.521,8.688c0.144,0.096,0.288,0.145,0.48,0.24
		c2.208,1.248,4.512,3.696,4.512,7.488L95.023,150.099z M85.923,119.992h-8.305v14.498h8.065h0.432
		c3.888-0.097,7.057-3.312,7.057-7.249C93.172,123.209,89.907,119.992,85.923,119.992z"/>
	<path fill="#C02026" d="M107.938,118.793c0-0.625,0.528-1.152,1.152-1.152h0.096h17.186c0.672,0,1.152,0.527,1.152,1.152
		c0,0.672-0.48,1.199-1.152,1.199h-16.082v13.297h14.065c0.624,0,1.152,0.529,1.152,1.201c0,0.623-0.528,1.151-1.152,1.151h-14.065
		v13.249h16.082c0.672,0,1.152,0.528,1.152,1.2c0,0.624-0.48,1.152-1.152,1.152h-17.138h-0.144h-0.096
		c-0.576-0.048-1.056-0.528-1.056-1.152V118.793z"/>
	<path fill="#C02026" d="M140.85,122.584v27.507c0,0.624-0.528,1.152-1.151,1.152c-0.625,0-1.152-0.528-1.152-1.152v-30.818
		c-0.145-0.479,0-0.96,0.432-1.296c0.528-0.336,1.297-0.24,1.633,0.287l20.354,28.227v-27.361c0-0.625,0.527-1.152,1.152-1.152
		c0.672,0,1.199,0.527,1.199,1.152v30.962c0,0.624-0.527,1.152-1.199,1.152c-0.385,0-0.673-0.144-0.912-0.433
		c-0.049-0.047-0.145-0.096-0.192-0.191L140.85,122.584z"/>
	<path fill="#C02026" d="M181.37,118.793c0-0.625,0.527-1.152,1.151-1.152c0.673,0,1.2,0.527,1.2,1.152v31.298
		c0,0.624-0.527,1.152-1.2,1.152c-0.624,0-1.151-0.528-1.151-1.152V118.793z"/>
	<path fill="#C02026" d="M206.362,119.992h-10.129c-0.625,0-1.152-0.527-1.152-1.199c0-0.625,0.527-1.152,1.152-1.152h22.562
		c0.624,0,1.152,0.527,1.152,1.152c0,0.672-0.528,1.199-1.152,1.199h-10.129v30.099c0,0.624-0.528,1.152-1.151,1.152
		c-0.625,0-1.152-0.528-1.152-1.152V119.992z"/>
	<path fill="#C02026" d="M239.993,135.113l-11.281-15.408c-0.336-0.529-0.239-1.297,0.24-1.633c0.528-0.432,1.297-0.336,1.633,0.191
		l10.513,14.449l10.561-14.449c0.336-0.527,1.104-0.623,1.633-0.191c0.527,0.336,0.624,1.104,0.239,1.633l-11.232,15.312v15.073
		c0,0.624-0.48,1.152-1.152,1.152c-0.624,0-1.152-0.528-1.152-1.152V135.113z"/>
</g>
<rect x="386.5" y="123.167" fill="none" width="306.5" height="15.333"/>
<text transform="matrix(1 0 0 1 386.5 137.335)"><tspan x="0" y="0" fill="#C02026" font-family="'QuicksandBold-Regular'" font-size="18">massage </tspan><tspan x="85.354" y="0" fill="#C02026" font-family="'LemonMilklightitalic'" font-size="18">&amp;</tspan><tspan x="96.665" y="0" fill="#C02026" font-family="'LemonMilk'" font-size="18"> </tspan><tspan x="101.938" y="0" fill="#C02026" font-family="'QuicksandBold-Regular'" font-size="18">day spa services</tspan></text>
<path fill-rule="evenodd" clip-rule="evenodd" fill="#2B555E" d="M373.8,165.885c-2.089-2.697-3.268-6.331-5.015-9.326
	c-1.316-2.256-2.264-4.674-3.48-7.16c-2.613-5.323-5.057-10.553-6.316-16.762c-0.17-0.842,0.13-1.668,0.256-2.24
	c1.062-4.857,3.11-7.755,5.506-11.162c0.875-1.453,1.748-2.906,2.623-4.359c1.818-2.404,3.643-4.809,5.459-7.209
	c0.42-0.398,0.836-0.795,1.253-1.193c1.612-2.113,3.081-4.287,4.937-6.15c3.098-2.651,6.196-5.303,9.296-7.953
	c1.154-0.799,2.662-1.615,3.496-2.721c1.35-1.784,0.686-4.424,1.024-6.523c0.339-2.615,0.681-5.229,1.018-7.845
	c0.333-2.087-0.381-3.996,0.103-5.599c0.509-1.675,0.838-4.614-1.148-4.869c-0.842-1.815-0.396-3.466-3.132-3.406
	c-0.61,0.346-1.374,0.59-1.782,1.127c-0.372,0.596-0.744,1.191-1.117,1.784c-0.063,0.177-0.13,0.353-0.193,0.527
	c-0.811-5.84-4.669-2.185-6.024,0.759c-0.954,2.068-0.587,5.951-0.816,8.237c-0.185,1.804-1.363,4.066-1.955,5.938
	c-0.449,1.409-0.418,3.297-1.173,4.485c-0.646,1.023-1.749,1.56-2.437,2.514c-0.469,0.655-1.79,2.985-2.43,3.239
	c-0.029-1.272-0.382-2.182-0.153-3.424c0.644-3.465,1.709-7.064,2.858-10.225c0.485-1.32,0.588-3.031-0.746-3.551
	c-1.836-0.721-3.41,1.202-4.027,2.062c-0.883,1.236-1.771,2.541-2.363,4.096c-0.259,1.012-0.52,2.022-0.777,3.035
	c-0.394,0.834-0.787,1.672-1.182,2.508c-0.173,0.461-0.346,0.924-0.521,1.386c-0.461,0.41-2.282,0.603-2.909,1.002
	c-1.655,1.054-3.231,2.825-4.481,4.306c-2.8,3.33-4.003,8.285-7.225,11.367c-5.573,5.33-11.987,8.168-14.481,16.74
	c-0.334,1.137-0.223,2.552-0.246,3.955c-0.021,1.225-0.24,2.717,0.021,4.016c0.487,2.418,1.661,4.552,2.551,6.707
	c0.116,0.613,0.228,1.227,0.342,1.84c0.361,1.271,0.979,2.649,1.412,3.815c0.673,2.149,1.347,4.296,2.022,6.444
	c1.623,4.761,3.316,9.686,4.58,14.861c1.453,5.98,2.564,13.293,3.669,18.094s9.032,13.571,19.526,12.668
	c8.085-0.693,11.793-6.759,10.557-12.562C379.272,174.922,374.158,166.35,373.8,165.885z M257.202,69.738
	c4.391,0.383,4.188,5.647,4.949,9.723c0.024,0.657,0.05,1.318,0.075,1.975c0.359,0.484,0.715,0.963,1.069,1.443
	c0.628,1.579,1.253,3.154,1.878,4.732c0.357,0.702,0.715,1.402,1.071,2.102c0.065,0,0.132,0,0.198,0c0-0.021,0-0.043,0-0.066
	c-0.941-2.129-1.904-4.801-2.421-7.166c-0.097-1.82-0.196-3.644-0.293-5.465c-0.228-0.812-0.45-1.621-0.676-2.434
	c-0.463-2.205-0.061-4.836,2.628-4.229c3.839,0.865,4.514,7.993,5.559,11.957c0.331,1.251,4.487,8.32,5.346,8.93
	c1.481,0.959,2.969,1.918,4.449,2.877c2.206,1.545,2.48,3.388,6.24,2.404c-0.492-0.92-0.983-1.84-1.472-2.76
	c-0.271-0.987-0.54-1.974-0.81-2.959c-0.072-1.032-0.145-2.064-0.217-3.096c-0.252-0.855-0.668-1.441-1.004-2.17
	c-0.572-1.234-0.764-2.958-1.08-4.209c-0.501-1.955-1.963-5.497,0.565-6.061c2.337-0.527,3.74,2.385,4.586,3.729
	c0.995,1.574,1.442,3.534,2.15,5.457c0.956,2.593,2.266,5.418,3.22,8.215c0.434,1.264,0.9,3.254,1.613,4.271
	c0.44,0.309,0.887,0.612,1.328,0.918c3.086,2.512,6.776,4.191,10.231,6.403c4.522,2.889,9.782,8.521,12.654,13.104
	c2.741,4.379,1.961,10.56,0.745,15.936c-0.146,1.538-0.295,3.077-0.44,4.612c-0.989,4.876-2.774,9.318-4.231,14.187
	c-0.387,1.979-0.772,3.954-1.161,5.933c-0.56,2.438-1.122,4.882-1.684,7.319c-0.9,4.639-1.808,9.277-2.707,13.914
	c-1.106,5.9-8.452,12.846-17.958,12.135c-8.27-0.621-15.438-6.161-13.564-11.971c0-0.067,3.749-9.641,6.15-14.063
	c1.51-2.773,3.019-5.548,4.525-8.321c1.438-3.586,2.875-7.174,4.315-10.762c1.083-2.794,2.233-5.387,3.2-8.379
	c0.185-0.565,0.841-2.608,0.648-2.967c-0.448-0.984-2.75-6.064-2.42-6.838c-2.193-2.075-4.377-4.396-6.854-6.154
	c-1.527-1.067-3.058-2.137-4.587-3.206c-2.661-2.103-5.198-4.33-7.979-6.347c-0.8-0.58-1.458-1.572-2.131-2.295
	c-1.531-1.636-3.227-3.254-4.93-4.717c-2.014-1.568-4.032-3.139-6.049-4.711c-1.333-0.973-3.035-1.535-4.052-2.811
	c-0.384-0.944-0.763-1.885-1.144-2.826c-0.484-1.354-0.59-2.645-1.08-3.879c-1.431-3.613-3.356-7.199-2.91-11.776
	c0.14-1.44-1.099-4.44-0.03-5.729c0.554-0.664,1.381-0.544,2.248-0.935C254.933,70.609,255.742,70.385,257.202,69.738z
	 M271.031,92.982c-0.074,0.187-0.056,0.097-0.063,0.264c0.019,0,0.041,0,0.064,0c0.04-0.088,0.089-0.176,0.132-0.264
	C271.121,92.982,271.072,92.982,271.031,92.982z M271.165,93.312c0.001,0.063,0.001,0.131,0.001,0.198
	c0.043-0.001,0.088-0.001,0.133-0.001C271.254,93.442,271.209,93.375,271.165,93.312z"/>
<g>
	<path fill="#2B555E" d="M325.312,17.27c0,0,25.018,25.09,21.344,52.973C345.157,81.615,337.503,91,326.213,91
		s-21.572-8.473-21.572-19.938C304.641,71.062,300.625,45.5,325.312,17.27z"/>
</g>
<path fill="#F0F6FC" d="M315.834,36.167c0,0-26.5,37.667,9.291,49.583c0,0,34.396-0.813,0.188-68.48L315.834,36.167z"/>
<path fill="#70ABAE" d="M325.312,17.27c0,0,17.187,25.564,17.354,42.397c0,0-2.198,35.583-22.279,24.193
	C320.387,83.86,350.021,68.437,325.312,17.27z"/>
<path fill="#70ABAE" d="M310.732,45.117l14.58-27.848C325.312,17.27,319.917,42.875,310.732,45.117z"/>
<ellipse fill="#F0F6FC" cx="337.428" cy="72.004" rx="1.51" ry="2.662"/>
<path fill="#F0F6FC" d="M314.97,87.58c-0.688,0.57-2.873-1.367-4.157-2.917c-1.284-1.551-1.767-3.27-1.078-3.84
	c0.688-0.57,2.287,0.225,3.571,1.775C314.589,84.149,315.659,87.01,314.97,87.58z"/>
</svg>
